# xmcd CD database file
#
# Track frame offsets:
#	187
#	6387
#	16047
#	26900
#	94437
#	107367
#	122932
#	141675
#	158560
#	175010
#	191620
#	217652
#	257650
#	277637
#	298085
#	316197
#
# Disc length: 4527 seconds
#
# Revision: 3
# Processed by: cddbd v1.5.1PL2 Copyright (c) Steve Scherf et al.
# Submitted via: CDex 1.51
#
DISCID=d911ad10
DTITLE=The Jimi Hendrix Experience - Electric Ladyland
DYEAR=1968
DGENRE=Rock
TTITLE0=And The Gods Made Love
TTITLE1=Have You Ever Been (To Electric Ladyland)
TTITLE2=Crosstown Traffic
TTITLE3=Voodoo Chile
TTITLE4=Little Miss Strange
TTITLE5=Long Hot Summer Night
TTITLE6=Come On (Part 1)
TTITLE7=Gypsy Eyes
TTITLE8=Burning Of The Midnight Lamp
TTITLE9=Rainy Day, Dream Away
TTITLE10=1983...(A Merman I Should Turn To Be)
TTITLE11=Moon, Turn The Tides...gently gently away
TTITLE12=Still Raining, Still Dreaming
TTITLE13=House Burning Down
TTITLE14=All ALong The Watchtower
TTITLE15=Voodoo Child (Slight Return)
EXTD=YEAR: 1968
EXTT0=
EXTT1=
EXTT2=
EXTT3=
EXTT4=
EXTT5=
EXTT6=
EXTT7=
EXTT8=
EXTT9=
EXTT10=
EXTT11=
EXTT12=
EXTT13=
EXTT14=
EXTT15=
PLAYORDER=
